<svg id="Content" xmlns="http://www.w3.org/2000/svg" width="204" height="48" viewBox="0 0 204 48">
  <title>img_logo_purple</title>
  <g>
    <path d="M48.4,19.1A24.1,24.1,0,0,0,34.3,1.9c-8-3.4-17.5-2-24.4,3L8.3,6a23.4,23.4,0,0,0-6.1,8L1.5,15.8A24.6,24.6,0,0,0,.3,28.2v0.6a23.7,23.7,0,0,0,13,16.6,24.5,24.5,0,0,0,5.1,1.8C33.6,51,48.7,39.2,48.9,23.8a24.4,24.4,0,0,0-.5-4.7M29.3,46.8a21.9,21.9,0,0,1-14.3-1.9c13.2-4.9,27.3-13.6,32.2-22.7,0.1,0.7.1,1.3,0.1,2s0,0.7,0,1.1a41.1,41.1,0,0,1-9.8,10.5c-5.8,4.1,5.6-2.5,9.2-6.5A23,23,0,0,1,29.3,46.8M2.1,19.1a48.4,48.4,0,0,0,9.3-.7c7-1.2,17.1-6,17.9-12.5-0.8,6.1-12.4,9.2-17.1,9.8a45.3,45.3,0,0,1-9.2.2l0.7-1.8A36.7,36.7,0,0,0,17,12.9c9.6-3,17.8-11.3,4.2-10.5-5.8.5-9.4,3.8-3.5,4.2,1.4,0.2,1.7.9-1.1,1.1A13.2,13.2,0,0,1,9.2,6.5c8.2-7.7,20.7-7.4,29.3-.6A21.8,21.8,0,0,1,41,8.2C42,19.6,14.7,26.5,2,28.1a23.3,23.3,0,0,1,.2-9" fill="#4c72b0"/>
    <path d="M29.3,5.9c0-.3,0-0.2,0,0s-0.2,1.8,0,0" fill="#2b3886"/>
    <g>
      <polygon points="66.4 6.9 66.4 16.9 64.3 16.9 58.8 10.5 58.8 16.9 56.4 16.9 56.4 6.9 58.6 6.9 63.9 13 63.9 6.9 66.4 6.9" fill="#4c72b0"/>
      <path d="M74.6,15.2v1.2a4,4,0,0,1-2,.6,1,1,0,0,1-1.2-.8,3.9,3.9,0,0,1-2.2.8,1.9,1.9,0,0,1-1.3-.5,1.5,1.5,0,0,1-.5-1.2,1.9,1.9,0,0,1,.6-1.4,10.9,10.9,0,0,1,3.4-1.4,1,1,0,0,0-1.2-1.1,3.5,3.5,0,0,0-2.5,1.1V10.8a5.4,5.4,0,0,1,2.9-.8q2.8,0,2.8,2v3.1c0,0.3.1,0.5,0.3,0.5l0.8-.4m-3.3,0V13.6l-1.5.7a0.9,0.9,0,0,0-.4.8,0.7,0.7,0,0,0,.2.5l0.5,0.2a1.8,1.8,0,0,0,1.2-.5" fill="#4c72b0"/>
      <path d="M80,10.2v1.4H77.6v2.8a1.1,1.1,0,0,0,.3.8,1,1,0,0,0,.8.3A3.1,3.1,0,0,0,80,15v1.5a5.1,5.1,0,0,1-2,.4,2.7,2.7,0,0,1-1.9-.6,2.5,2.5,0,0,1-.7-1.9V11.6h-1V11.2L77.3,8h0.3v2.1H80Z" fill="#4c72b0"/>
      <path d="M80.7,8a1.2,1.2,0,1,1,1.2,1.2,1.1,1.1,0,0,1-.8-0.3A1.1,1.1,0,0,1,80.7,8M83,16.9H80.8V10.2H83v6.7Z" fill="#4c72b0"/>
      <path d="M87.9,10a4,4,0,0,1,2.7.9,3.2,3.2,0,0,1,1.1,2.6,3.1,3.1,0,0,1-1.1,2.6,4.1,4.1,0,0,1-2.7.9,3.9,3.9,0,0,1-2.7-1,3.3,3.3,0,0,1-1.1-2.5A3.2,3.2,0,0,1,85.2,11a4,4,0,0,1,2.7-1m0,5.7q1.5,0,1.5-2.3t-1.5-2.2a1.3,1.3,0,0,0-1.1.6,2.8,2.8,0,0,0-.4,1.7q0,2.2,1.5,2.2" fill="#4c72b0"/>
      <path d="M94.9,10.2v1A2.8,2.8,0,0,1,97.1,10a2.4,2.4,0,0,1,1.7.7,2.5,2.5,0,0,1,.7,1.9v4.3H97.4V12.8q0-1.3-1-1.3a2,2,0,0,0-1.5,1.1v4.3H92.8V10.2h2.1Z" fill="#4c72b0"/>
      <path d="M107.8,15.2v1.2a4,4,0,0,1-2,.6,1,1,0,0,1-1.2-.8,3.9,3.9,0,0,1-2.2.8,1.9,1.9,0,0,1-1.3-.5,1.5,1.5,0,0,1-.5-1.2,1.9,1.9,0,0,1,.6-1.4,10.9,10.9,0,0,1,3.4-1.4,1,1,0,0,0-1.2-1.1,3.5,3.5,0,0,0-2.5,1.1V10.8a5.4,5.4,0,0,1,2.9-.8q2.8,0,2.8,2v3.1q0,0.5.3,0.5l0.8-.4m-3.3,0V13.6l-1.5.7a0.9,0.9,0,0,0-.4.8,0.7,0.7,0,0,0,.2.5l0.5,0.2a1.8,1.8,0,0,0,1.2-.5" fill="#4c72b0"/>
      <rect x="108.4" y="6.9" width="2.1" height="9.94" fill="#4c72b0"/>
      <path d="M125.3,13.8V16a8.2,8.2,0,0,1-3.9,1,5.9,5.9,0,0,1-4.2-1.5,4.7,4.7,0,0,1-1.6-3.6,4.7,4.7,0,0,1,1.7-3.6,6.2,6.2,0,0,1,4.3-1.5,6.9,6.9,0,0,1,3.6.9V9.9a7,7,0,0,0-3.4-1,3.9,3.9,0,0,0-2.6.8,2.7,2.7,0,0,0-1,2.2,2.8,2.8,0,0,0,1,2.2,3.7,3.7,0,0,0,2.5.9l1.5-.2,2.1-.9" fill="#4c72b0"/>
      <path d="M133.1,14.8v1.3a4.9,4.9,0,0,1-3,.9,4.1,4.1,0,0,1-2.8-.9,3.2,3.2,0,0,1-1.1-2.5,3.4,3.4,0,0,1,1-2.5,3.5,3.5,0,0,1,2.5-1,3.4,3.4,0,0,1,2.5,1,3.7,3.7,0,0,1,.9,2.8h-4.8a1.9,1.9,0,0,0,.6,1.4,2.3,2.3,0,0,0,1.6.5,4.2,4.2,0,0,0,2.5-1m-4.7-2h2.9a1.5,1.5,0,1,0-2.9,0" fill="#4c72b0"/>
      <path d="M136.4,10.2v1a2.8,2.8,0,0,1,2.2-1.1,2.4,2.4,0,0,1,1.7.7,2.5,2.5,0,0,1,.7,1.9v4.3H139V12.8q0-1.3-1-1.3a2,2,0,0,0-1.5,1.1v4.3h-2.1V10.2h2.1Z" fill="#4c72b0"/>
      <path d="M147.3,10.2v1.4h-2.4v2.8a1.1,1.1,0,0,0,.3.8,1,1,0,0,0,.8.3,3.1,3.1,0,0,0,1.4-.4v1.5a5.1,5.1,0,0,1-2,.4,2.7,2.7,0,0,1-1.9-.6,2.4,2.4,0,0,1-.7-1.9V11.6h-1V11.2L144.6,8h0.3v2.1h2.4Z" fill="#4c72b0"/>
      <path d="M150.3,10.2v1.9h0q0.9-2.1,2.1-2.1a2.5,2.5,0,0,1,1.4.6l-0.6,1.9A2.6,2.6,0,0,0,152,12a1.4,1.4,0,0,0-1.2.9L150.3,14v2.9h-2.1V10.2h2.1Z" fill="#4c72b0"/>
      <path d="M160.6,14.8v1.3a4.9,4.9,0,0,1-3,.9,4.1,4.1,0,0,1-2.8-.9,3.2,3.2,0,0,1-1.1-2.5,3.4,3.4,0,0,1,1-2.5,3.5,3.5,0,0,1,2.5-1,3.4,3.4,0,0,1,2.5,1,3.7,3.7,0,0,1,.9,2.8h-4.8a1.9,1.9,0,0,0,.6,1.4,2.3,2.3,0,0,0,1.6.5,4.2,4.2,0,0,0,2.5-1m-4.7-2h2.9a1.5,1.5,0,1,0-2.9,0" fill="#4c72b0"/>
      <path d="M167.9,10.2h1v1.4h-1v5.3h-2.1V11.6h-1V10.2h1V9.8a3,3,0,0,1,.8-2.2,2.9,2.9,0,0,1,2.1-.8H170V8.6h-0.9a1,1,0,0,0-1.2,1.2v0.4Z" fill="#4c72b0"/>
      <path d="M172.9,10a4,4,0,0,1,2.7.9,3.2,3.2,0,0,1,1.1,2.6,3.1,3.1,0,0,1-1.1,2.6,4.1,4.1,0,0,1-2.7.9,3.9,3.9,0,0,1-2.7-1,3.3,3.3,0,0,1-1.1-2.5,3.2,3.2,0,0,1,1.1-2.5,4,4,0,0,1,2.7-1m0,5.7q1.5,0,1.5-2.3t-1.5-2.2a1.3,1.3,0,0,0-1.1.6,2.8,2.8,0,0,0-.4,1.7q0,2.2,1.5,2.2" fill="#4c72b0"/>
      <path d="M180,10.2v1.9h0q0.9-2.1,2.1-2.1a2.5,2.5,0,0,1,1.4.6L183,12.5a2.6,2.6,0,0,0-1.3-.5,1.4,1.4,0,0,0-1.2.9L180,14v2.9h-2.1V10.2H180Z" fill="#4c72b0"/>
      <polygon points="63.7 28 63.7 29.8 56.4 29.8 56.4 19.8 63.6 19.8 63.6 21.7 58.9 21.7 58.9 23.7 63.4 23.7 63.4 25.6 58.9 25.6 58.9 28 63.7 28" fill="#4c72b0"/>
      <path d="M71.6,28.1v1.2a4,4,0,0,1-2,.6,1,1,0,0,1-1.2-.8,3.9,3.9,0,0,1-2.2.8,1.9,1.9,0,0,1-1.3-.5,1.5,1.5,0,0,1-.5-1.2,1.9,1.9,0,0,1,.6-1.4,10.9,10.9,0,0,1,3.4-1.4,1,1,0,0,0-1.2-1.1,3.5,3.5,0,0,0-2.5,1.1V23.7a5.4,5.4,0,0,1,2.9-.8q2.8,0,2.8,2V28c0,0.3.1,0.5,0.3,0.5l0.8-.4m-3.3,0V26.5l-1.5.7a0.9,0.9,0,0,0-.4.8,0.7,0.7,0,0,0,.2.5l0.5,0.2a1.8,1.8,0,0,0,1.2-.5" fill="#4c72b0"/>
      <path d="M74.3,23.1V25h0q0.9-2.1,2.1-2.1a2.5,2.5,0,0,1,1.4.6l-0.6,1.9a2.6,2.6,0,0,0-1.3-.5,1.4,1.4,0,0,0-1.2.9l-0.5,1.1v2.9H72.2V23.1h2.1Z" fill="#4c72b0"/>
      <path d="M83.5,23.1v1.4H81.1v2.8a1.1,1.1,0,0,0,.3.8,1,1,0,0,0,.8.3,3.1,3.1,0,0,0,1.4-.4v1.5a5.1,5.1,0,0,1-2,.4,2.7,2.7,0,0,1-1.9-.6,2.5,2.5,0,0,1-.7-1.9V24.5H78V24.1L80.8,21h0.3v2.1h2.4Z" fill="#4c72b0"/>
      <path d="M86.4,19.8V24h0a2.6,2.6,0,0,1,2.1-1.1,2.4,2.4,0,0,1,1.8.7,2.5,2.5,0,0,1,.7,1.9v4.3H88.9V25.9q0-1.5-1.1-1.5a1.9,1.9,0,0,0-1.4,1v4.3H84.3V19.8h2.1Z" fill="#4c72b0"/>
      <path d="M101.7,19.7a5.6,5.6,0,0,1,4.1,1.5,4.8,4.8,0,0,1,1.6,3.6,4.8,4.8,0,0,1-1.6,3.6,6.3,6.3,0,0,1-8.2,0,4.8,4.8,0,0,1,0-7.2,5.7,5.7,0,0,1,4.1-1.5m0,8.1A3.1,3.1,0,0,0,104,27a3.2,3.2,0,0,0,0-4.4,3.5,3.5,0,0,0-4.5,0,3.2,3.2,0,0,0,0,4.4,3.1,3.1,0,0,0,2.3.8" fill="#4c72b0"/>
      <path d="M110.7,19.8v3.6a3.2,3.2,0,0,1,1.7-.5,3.1,3.1,0,0,1,2.4,1,3.5,3.5,0,0,1,.9,2.5,3.7,3.7,0,0,1-.9,2.5,2.9,2.9,0,0,1-2.3,1,3.1,3.1,0,0,1-1.9-.6v0.5h-2.1V19.8h2.1Zm0,5v3.1a1.9,1.9,0,0,0,1.3.6,1.4,1.4,0,0,0,1.2-.6,2.5,2.5,0,0,0,.4-1.6,2.2,2.2,0,0,0-.5-1.5,1.5,1.5,0,0,0-1.2-.5,2.1,2.1,0,0,0-1.2.5" fill="#4c72b0"/>
      <path d="M121.5,23.4v1.5a4.4,4.4,0,0,0-2.2-.7q-0.8,0-.8.5l0.2,0.3,1.2,0.6a3.6,3.6,0,0,1,1.5,1,1.9,1.9,0,0,1,.4,1.2,2,2,0,0,1-.7,1.6,3.2,3.2,0,0,1-2,.6,5.6,5.6,0,0,1-2.4-.5V27.9a5.6,5.6,0,0,0,2.2.6q1,0,1-.5a0.5,0.5,0,0,0-.2-0.4l-1.3-.6a3.5,3.5,0,0,1-1.5-.9,1.8,1.8,0,0,1,.4-2.6,3.3,3.3,0,0,1,2-.6,4.7,4.7,0,0,1,2.2.5" fill="#4c72b0"/>
      <path d="M129.3,27.7V29a5,5,0,0,1-3,.9,4.1,4.1,0,0,1-2.8-.9,3.2,3.2,0,0,1-1.1-2.5,3.4,3.4,0,0,1,1-2.5,3.5,3.5,0,0,1,2.5-1,3.4,3.4,0,0,1,2.5,1,3.7,3.7,0,0,1,.9,2.8h-4.8a1.9,1.9,0,0,0,.6,1.4,2.3,2.3,0,0,0,1.6.5,4.2,4.2,0,0,0,2.5-1m-4.7-2h2.9a1.5,1.5,0,1,0-2.9,0" fill="#4c72b0"/>
      <path d="M132.7,23.1V25h0q0.9-2.1,2.1-2.1a2.5,2.5,0,0,1,1.4.6l-0.6,1.9a2.6,2.6,0,0,0-1.3-.5,1.4,1.4,0,0,0-1.2.9l-0.5,1.1v2.9h-2.1V23.1h2.1Z" fill="#4c72b0"/>
      <polygon points="139.6 29.9 136.5 23.1 138.8 23.1 140.2 26.8 141.6 23.1 143.9 23.1 140.8 29.9 139.6 29.9" fill="#4c72b0"/>
      <path d="M151.3,28.1v1.2a4,4,0,0,1-2,.6,1,1,0,0,1-1.2-.8,3.9,3.9,0,0,1-2.2.8,1.9,1.9,0,0,1-1.3-.5,1.5,1.5,0,0,1-.5-1.2,1.9,1.9,0,0,1,.6-1.4,10.9,10.9,0,0,1,3.4-1.4,1,1,0,0,0-1.2-1.1,3.5,3.5,0,0,0-2.5,1.1V23.7a5.4,5.4,0,0,1,2.9-.8q2.8,0,2.8,2V28c0,0.3.1,0.5,0.3,0.5l0.8-.4m-3.3,0V26.5l-1.5.7a0.9,0.9,0,0,0-.4.8,0.7,0.7,0,0,0,.2.5l0.5,0.2a1.8,1.8,0,0,0,1.2-.5" fill="#4c72b0"/>
      <path d="M156.7,23.1v1.4h-2.4v2.8a1.1,1.1,0,0,0,.3.8,1,1,0,0,0,.8.3,3.1,3.1,0,0,0,1.4-.4v1.5a5.1,5.1,0,0,1-2,.4,2.7,2.7,0,0,1-1.9-.6,2.4,2.4,0,0,1-.7-1.9V24.5h-1V24.1L154,21h0.3v2.1h2.4Z" fill="#4c72b0"/>
      <path d="M157.4,20.9a1.2,1.2,0,1,1,1.2,1.2,1.1,1.1,0,0,1-.8-0.3,1.1,1.1,0,0,1-.3-0.8m2.2,8.9h-2.1V23.1h2.1v6.7Z" fill="#4c72b0"/>
      <path d="M164.6,22.9a4,4,0,0,1,2.7.9,3.2,3.2,0,0,1,1.1,2.6,3.1,3.1,0,0,1-1.1,2.6,4.1,4.1,0,0,1-2.7.9,3.9,3.9,0,0,1-2.7-1,3.3,3.3,0,0,1-1.1-2.5,3.2,3.2,0,0,1,1.1-2.5,4,4,0,0,1,2.7-1m0,5.7q1.5,0,1.5-2.3t-1.5-2.2a1.3,1.3,0,0,0-1.1.6,2.8,2.8,0,0,0-.4,1.7q0,2.2,1.5,2.2" fill="#4c72b0"/>
      <path d="M171.6,23.1v1a2.8,2.8,0,0,1,2.2-1.1,2.4,2.4,0,0,1,1.7.7,2.5,2.5,0,0,1,.7,1.9v4.3h-2.1V25.7q0-1.3-1-1.3a2,2,0,0,0-1.5,1.1v4.3h-2.1V23.1h2.1Z" fill="#4c72b0"/>
      <polygon points="60.3 37 60.3 40.8 59.4 40.8 57.3 38.4 57.3 40.8 56.4 40.8 56.4 37 57.3 37 59.3 39.3 59.3 37 60.3 37" fill="#4c72b0"/>
      <path d="M63.7,37l1.7,3.8h-1l-0.3-.8H62.4l-0.3.8h-1L62.6,37h1.1Zm0.1,2.4-0.6-1.5-0.6,1.5h1.2Z" fill="#4c72b0"/>
      <polygon points="69.1 37 69.1 37.7 67.7 37.7 67.7 40.8 66.7 40.8 66.7 37.7 65.3 37.7 65.3 37 69.1 37" fill="#4c72b0"/>
      <path d="M72.9,37h1v2.2a1.6,1.6,0,0,1-.5,1.3,2.5,2.5,0,0,1-2.8,0,1.6,1.6,0,0,1-.5-1.3V37h1v2.2a0.8,0.8,0,0,0,.3.6l0.7,0.2a1,1,0,0,0,.7-0.2,0.9,0.9,0,0,0,.3-0.7V37Z" fill="#4c72b0"/>
      <path d="M75.1,37h1.7a1.3,1.3,0,0,1,.9.3,1,1,0,0,1,.3.8,1,1,0,0,1-.7.9,1.3,1.3,0,0,1,.5.7l0.5,1.1h-1L77,40.1l-0.4-.7-0.4-.2H76v1.6h-1V37Zm1,0.7v0.9h0.9a0.4,0.4,0,0,0,.1-0.3,0.4,0.4,0,0,0-.5-0.4H76Z" fill="#4c72b0"/>
      <path d="M81.5,37l1.7,3.8h-1l-0.3-.8H80.1l-0.3.8h-1L80.4,37h1.1Zm0.1,2.4-0.6-1.5-0.6,1.5h1.2Z" fill="#4c72b0"/>
      <polygon points="86.9 40.1 86.9 40.8 84 40.8 84 37 85 37 85 40.1 86.9 40.1" fill="#4c72b0"/>
      <polygon points="92.3 40.1 92.3 40.8 89.4 40.8 89.4 37 92.2 37 92.2 37.7 90.4 37.7 90.4 38.5 92.1 38.5 92.1 39.2 90.4 39.2 90.4 40.1 92.3 40.1" fill="#4c72b0"/>
      <polygon points="97.2 37 97.2 40.8 96.4 40.8 94.3 38.4 94.3 40.8 93.3 40.8 93.3 37 94.2 37 96.2 39.3 96.2 37 97.2 37" fill="#4c72b0"/>
      <polygon points="102 37 100.2 40.9 99.8 40.9 98 37 99 37 100 39.2 101 37 102 37" fill="#4c72b0"/>
      <rect x="102.8" y="37" width="1" height="3.83" fill="#4c72b0"/>
      <path d="M104.9,37h1.7a1.3,1.3,0,0,1,.9.3,1,1,0,0,1,.3.8,1,1,0,0,1-.7.9,1.3,1.3,0,0,1,.5.7l0.5,1.1h-1l-0.3-.7-0.4-.7-0.4-.2h-0.3v1.6h-1V37Zm1,0.7v0.9h0.9a0.4,0.4,0,0,0,.1-0.3,0.4,0.4,0,0,0-.5-0.4h-0.5Z" fill="#4c72b0"/>
      <path d="M111,36.9a2.2,2.2,0,0,1,1.6.6,1.9,1.9,0,0,1,.6,1.4,1.8,1.8,0,0,1-.6,1.4,2.4,2.4,0,0,1-3.2,0,1.9,1.9,0,0,1,0-2.8,2.2,2.2,0,0,1,1.6-.6m0,3.1a1.2,1.2,0,0,0,.9-0.3,1.2,1.2,0,0,0,0-1.7,1.4,1.4,0,0,0-1.8,0,1.2,1.2,0,0,0,0,1.7,1.2,1.2,0,0,0,.9.3" fill="#4c72b0"/>
      <polygon points="118.1 37 118.1 40.8 117.3 40.8 115.2 38.4 115.2 40.8 114.2 40.8 114.2 37 115.1 37 117.1 39.3 117.1 37 118.1 37" fill="#4c72b0"/>
      <polygon points="121.3 38.4 122.6 37 123.4 37 123.4 40.8 122.4 40.8 122.4 38.4 121.4 39.6 121.3 39.6 120.2 38.4 120.2 40.8 119.3 40.8 119.3 37 120.1 37 121.3 38.4" fill="#4c72b0"/>
      <polygon points="127.4 40.1 127.4 40.8 124.6 40.8 124.6 37 127.4 37 127.4 37.7 125.5 37.7 125.5 38.5 127.3 38.5 127.3 39.2 125.5 39.2 125.5 40.1 127.4 40.1" fill="#4c72b0"/>
      <polygon points="132.3 37 132.3 40.8 131.5 40.8 129.4 38.4 129.4 40.8 128.5 40.8 128.5 37 129.3 37 131.4 39.3 131.4 37 132.3 37" fill="#4c72b0"/>
      <polygon points="137 37 137 37.7 135.6 37.7 135.6 40.8 134.6 40.8 134.6 37.7 133.3 37.7 133.3 37 137 37" fill="#4c72b0"/>
      <path d="M139.4,37h1.7a1.3,1.3,0,0,1,.9.3,1,1,0,0,1,.3.8,1,1,0,0,1-.7.9,1.3,1.3,0,0,1,.5.7l0.5,1.1h-1l-0.3-.7-0.4-.7-0.4-.2h-0.3v1.6h-1V37Zm1,0.7v0.9h0.9a0.4,0.4,0,0,0,.1-0.3,0.4,0.4,0,0,0-.5-0.4h-0.5Z" fill="#4c72b0"/>
      <polygon points="146.4 40.1 146.4 40.8 143.5 40.8 143.5 37 146.3 37 146.3 37.7 144.5 37.7 144.5 38.5 146.2 38.5 146.2 39.2 144.5 39.2 144.5 40.1 146.4 40.1" fill="#4c72b0"/>
      <path d="M150,37.2V38l-1.2-.3h-0.4l-0.2.2v0.2l0.5,0.3,0.7,0.3,0.4,0.4a1,1,0,0,1,.2.6,1,1,0,0,1-.4.8,1.7,1.7,0,0,1-1.1.3,2.8,2.8,0,0,1-1.4-.4V39.7l0.7,0.4h0.6c0.4,0,.6-0.1.6-0.4V39.6l-0.5-.3-0.7-.3-0.4-.4a1,1,0,0,1-.2-0.6,1,1,0,0,1,.4-0.8,1.7,1.7,0,0,1,1.1-.3l1.3,0.3" fill="#4c72b0"/>
      <polygon points="153.9 40.1 153.9 40.8 151 40.8 151 37 153.8 37 153.8 37.7 152 37.7 152 38.5 153.7 38.5 153.7 39.2 152 39.2 152 40.1 153.9 40.1" fill="#4c72b0"/>
      <path d="M157.1,37l1.7,3.8h-1l-0.3-.8h-1.7l-0.3.8h-1L156,37h1.1Zm0.1,2.4-0.6-1.5L156,39.4h1.2Z" fill="#4c72b0"/>
      <path d="M159.5,37h1.7a1.3,1.3,0,0,1,.9.3,1,1,0,0,1,.3.8,1,1,0,0,1-.7.9,1.4,1.4,0,0,1,.5.7l0.5,1.1h-1l-0.3-.7-0.4-.7-0.4-.2h-0.3v1.6h-1V37Zm1,0.7v0.9h0.9a0.4,0.4,0,0,0,.1-0.3,0.4,0.4,0,0,0-.5-0.4h-0.5Z" fill="#4c72b0"/>
      <path d="M167.2,39.7v0.8a3.2,3.2,0,0,1-1.5.4,2.3,2.3,0,0,1-1.6-.6,1.9,1.9,0,0,1,0-2.8,2.4,2.4,0,0,1,1.7-.6,2.7,2.7,0,0,1,1.4.3v0.9a2.7,2.7,0,0,0-1.3-.4,1.5,1.5,0,0,0-1,.3,1,1,0,0,0-.4.8,1.1,1.1,0,0,0,.4.8,1.4,1.4,0,0,0,1,.3h0.6l0.8-.3" fill="#4c72b0"/>
      <polygon points="172.1 37 172.1 40.8 171.1 40.8 171.1 39.3 169.2 39.3 169.2 40.8 168.2 40.8 168.2 37 169.2 37 169.2 38.5 171.1 38.5 171.1 37 172.1 37" fill="#4c72b0"/>
      <path d="M178.6,39.7v0.8a3.2,3.2,0,0,1-1.5.4,2.3,2.3,0,0,1-1.6-.6,1.9,1.9,0,0,1,0-2.8,2.4,2.4,0,0,1,1.7-.6,2.7,2.7,0,0,1,1.4.3v0.9a2.7,2.7,0,0,0-1.3-.4,1.5,1.5,0,0,0-1,.3,1,1,0,0,0-.4.8,1.1,1.1,0,0,0,.4.8,1.4,1.4,0,0,0,1,.3h0.6l0.8-.3" fill="#4c72b0"/>
      <path d="M181.6,36.9a2.2,2.2,0,0,1,1.6.6,1.9,1.9,0,0,1,.6,1.4,1.8,1.8,0,0,1-.6,1.4,2.4,2.4,0,0,1-3.2,0,1.9,1.9,0,0,1,0-2.8,2.2,2.2,0,0,1,1.6-.6m0,3.1a1.2,1.2,0,0,0,.9-0.3,1.2,1.2,0,0,0,0-1.7,1.4,1.4,0,0,0-1.8,0,1.2,1.2,0,0,0,0,1.7,1.2,1.2,0,0,0,.9.3" fill="#4c72b0"/>
      <path d="M187.6,37h1v2.2a1.6,1.6,0,0,1-.5,1.3,2.5,2.5,0,0,1-2.8,0,1.6,1.6,0,0,1-.5-1.3V37h1v2.2a0.8,0.8,0,0,0,.3.6l0.7,0.2a1,1,0,0,0,.7-0.2,0.9,0.9,0,0,0,.3-0.7V37Z" fill="#4c72b0"/>
      <polygon points="193.4 37 193.4 40.8 192.6 40.8 190.5 38.4 190.5 40.8 189.5 40.8 189.5 37 190.4 37 192.5 39.3 192.5 37 193.4 37" fill="#4c72b0"/>
      <path d="M198,39.7v0.8a3.2,3.2,0,0,1-1.5.4,2.3,2.3,0,0,1-1.6-.6,1.9,1.9,0,0,1,0-2.8,2.4,2.4,0,0,1,1.7-.6,2.7,2.7,0,0,1,1.4.3v0.9a2.7,2.7,0,0,0-1.3-.4,1.5,1.5,0,0,0-1,.3,1,1,0,0,0-.4.8,1.1,1.1,0,0,0,.4.8,1.4,1.4,0,0,0,1,.3h0.6l0.8-.3" fill="#4c72b0"/>
      <rect x="199" y="37" width="1" height="3.83" fill="#4c72b0"/>
      <polygon points="204 40.1 204 40.8 201.1 40.8 201.1 37 202 37 202 40.1 204 40.1" fill="#4c72b0"/>
    </g>
  </g>
</svg>
